<?xml version="1.0" encoding="utf-8"?>
<!-- Generator: Adobe Illustrator 24.3.0, SVG Export Plug-In . SVG Version: 6.00 Build 0)  -->
<svg version="1.1" id="Layer_1" xmlns="http://www.w3.org/2000/svg" xmlns:xlink="http://www.w3.org/1999/xlink" x="0px" y="0px"
	 viewBox="0 0 621 642" style="enable-background:new 0 0 621 642;" xml:space="preserve">
<style type="text/css">
	.st0{fill:#FFFFFF;}
	.st1{clip-path:url(#SVGID_2_);}
	.st2{fill:none;stroke:#000000;stroke-width:0.75;stroke-linecap:round;stroke-linejoin:round;stroke-miterlimit:10;}
	.st3{font-family:'ArialMT';}
	.st4{font-size:12px;}
	
		.st5{clip-path:url(#SVGID_4_);fill:none;stroke:#D3D3D3;stroke-width:0.75;stroke-linecap:round;stroke-linejoin:round;stroke-miterlimit:10;}
	
		.st6{clip-path:url(#SVGID_4_);fill:none;stroke:#1874CD;stroke-width:0.75;stroke-linecap:round;stroke-linejoin:round;stroke-miterlimit:10;}
	
		.st7{clip-path:url(#SVGID_4_);fill:none;stroke:#EE7942;stroke-width:0.75;stroke-linecap:round;stroke-linejoin:round;stroke-miterlimit:10;}
	.st8{clip-path:url(#SVGID_4_);fill:#1874CD;}
	.st9{clip-path:url(#SVGID_4_);fill:#EE7942;}
	
		.st10{clip-path:url(#SVGID_4_);fill:none;stroke:#1874CD;stroke-width:1.5;stroke-linecap:round;stroke-linejoin:round;stroke-miterlimit:10;}
	
		.st11{clip-path:url(#SVGID_4_);fill:none;stroke:#EE7942;stroke-width:1.5;stroke-linecap:round;stroke-linejoin:round;stroke-miterlimit:10;}
	.st12{clip-path:url(#SVGID_4_);fill:#FFFFFF;}
	
		.st13{clip-path:url(#SVGID_4_);fill:none;stroke:#000000;stroke-width:0.75;stroke-linecap:round;stroke-linejoin:round;stroke-miterlimit:10;}
	.st14{clip-path:url(#SVGID_4_);}
</style>
<rect class="st0" width="621" height="642"/>
<g>
	<defs>
		<rect id="SVGID_1_" x="59.04" y="59.04" width="531.72" height="509.52"/>
	</defs>
	<clipPath id="SVGID_2_">
		<use xlink:href="#SVGID_1_"  style="overflow:visible;"/>
	</clipPath>
	<rect x="226.12" y="424.31" class="st1" width="8.02" height="8.02"/>
	<rect x="326.92" y="318.98" class="st1" width="6.06" height="6.07"/>
	<rect x="249.17" y="309.79" class="st1" width="4.13" height="4.14"/>
	<rect x="216.17" y="351.3" class="st1" width="6.38" height="6.39"/>
	<rect x="174.51" y="269.69" class="st1" width="4.61" height="4.6"/>
	<rect x="247.57" y="357.78" class="st1" width="9.87" height="9.87"/>
	<rect x="183" y="345.17" class="st1" width="4.44" height="4.44"/>
	<rect x="140.84" y="332.87" class="st1" width="12.78" height="12.78"/>
	<rect x="285.03" y="352.04" class="st1" width="3.76" height="3.76"/>
	<rect x="251.31" y="290.69" class="st1" width="3.45" height="3.45"/>
	<rect x="273.39" y="340.18" class="st1" width="7.11" height="7.1"/>
	<rect x="255.84" y="341.85" class="st1" width="4.77" height="4.77"/>
	<rect x="242.53" y="339.22" class="st1" width="6.25" height="6.25"/>
	<rect x="298.75" y="328.86" class="st1" width="4.19" height="4.19"/>
	<rect x="240.08" y="344.26" class="st1" width="9.55" height="9.55"/>
	<rect x="279.19" y="301.03" class="st1" width="3.89" height="3.89"/>
	<rect x="254.59" y="323.78" class="st1" width="4.89" height="4.89"/>
	<rect x="206.64" y="329.68" class="st1" width="7.14" height="7.13"/>
	<rect x="316.48" y="349.74" class="st1" width="6.23" height="6.22"/>
	<rect x="255.38" y="292.39" class="st1" width="2.7" height="2.7"/>
	<rect x="464" y="237.18" class="st1" width="5.15" height="5.14"/>
	<rect x="387.02" y="197.57" class="st1" width="3.42" height="3.42"/>
	<rect x="417.89" y="210.8" class="st1" width="3.46" height="3.45"/>
	<rect x="219.39" y="329.79" class="st1" width="3.87" height="3.87"/>
	<rect x="196.26" y="356.92" class="st1" width="6.02" height="6.01"/>
	<rect x="191.86" y="333.17" class="st1" width="5.44" height="5.44"/>
	<rect x="251.12" y="328.48" class="st1" width="3.93" height="3.93"/>
	<rect x="138.32" y="359.52" class="st1" width="4.32" height="4.32"/>
	<rect x="210.64" y="355.21" class="st1" width="5.09" height="5.09"/>
	<rect x="207.98" y="317.33" class="st1" width="4.54" height="4.54"/>
	<rect x="165.75" y="330.91" class="st1" width="5.12" height="5.13"/>
	<rect x="191.29" y="318.28" class="st1" width="5.94" height="5.94"/>
	<rect x="96.3" y="353.99" class="st1" width="13.5" height="13.5"/>
	<rect x="514.39" y="350.47" class="st1" width="6" height="6"/>
	<rect x="535.86" y="405.3" class="st1" width="9.66" height="9.66"/>
	<rect x="544.88" y="407.42" class="st1" width="13.36" height="13.37"/>
	<rect x="534.95" y="391.37" class="st1" width="8.74" height="8.74"/>
	<rect x="547.82" y="333.79" class="st1" width="12.5" height="12.5"/>
	<rect x="539.48" y="311.74" class="st1" width="8.56" height="8.56"/>
</g>
<line class="st2" x1="106.6" y1="568.56" x2="571.07" y2="568.56"/>
<line class="st2" x1="106.6" y1="568.56" x2="106.6" y2="575.76"/>
<line class="st2" x1="199.49" y1="568.56" x2="199.49" y2="575.76"/>
<line class="st2" x1="292.39" y1="568.56" x2="292.39" y2="575.76"/>
<line class="st2" x1="385.28" y1="568.56" x2="385.28" y2="575.76"/>
<line class="st2" x1="478.17" y1="568.56" x2="478.17" y2="575.76"/>
<line class="st2" x1="571.07" y1="568.56" x2="571.07" y2="575.76"/>
<text transform="matrix(1 0 0 1 94.7598 594.4805)" class="st3 st4">−0.2</text>
<text transform="matrix(1 0 0 1 187.6499 594.4805)" class="st3 st4">−0.1</text>
<text transform="matrix(1 0 0 1 284.0498 594.4805)" class="st3 st4">0.0</text>
<text transform="matrix(1 0 0 1 376.9404 594.4805)" class="st3 st4">0.1</text>
<text transform="matrix(1 0 0 1 469.8301 594.4805)" class="st3 st4">0.2</text>
<text transform="matrix(1 0 0 1 562.7305 594.4805)" class="st3 st4">0.3</text>
<line class="st2" x1="59.04" y1="519.05" x2="59.04" y2="147.48"/>
<line class="st2" x1="59.04" y1="519.05" x2="51.84" y2="519.05"/>
<line class="st2" x1="59.04" y1="426.16" x2="51.84" y2="426.16"/>
<line class="st2" x1="59.04" y1="333.26" x2="51.84" y2="333.26"/>
<line class="st2" x1="59.04" y1="240.37" x2="51.84" y2="240.37"/>
<line class="st2" x1="59.04" y1="147.48" x2="51.84" y2="147.48"/>
<text transform="matrix(-6.123234e-17 -1 1 -6.123234e-17 41.7596 530.8906)" class="st3 st4">−0.2</text>
<text transform="matrix(-6.123234e-17 -1 1 -6.123234e-17 41.76 438)" class="st3 st4">−0.1</text>
<text transform="matrix(-6.123234e-17 -1 1 -6.123234e-17 41.7596 341.6006)" class="st3 st4">0.0</text>
<text transform="matrix(-6.123234e-17 -1 1 -6.123234e-17 41.76 248.71)" class="st3 st4">0.1</text>
<text transform="matrix(-6.123234e-17 -1 1 -6.123234e-17 41.7598 155.8203)" class="st3 st4">0.2</text>
<polyline class="st2" points="59.04,568.56 590.76,568.56 590.76,59.04 59.04,59.04 59.04,568.56 "/>
<text transform="matrix(1 0 0 1 289.5498 623.2803)" class="st3 st4">PC1: 76.08%</text>
<text transform="matrix(-6.123234e-17 -1 1 -6.123234e-17 12.9603 345.8203)" class="st3 st4">PC2: 9.96%</text>
<g>
	<defs>
		<rect id="SVGID_3_" x="59.04" y="59.04" width="531.72" height="509.52"/>
	</defs>
	<clipPath id="SVGID_4_">
		<use xlink:href="#SVGID_3_"  style="overflow:visible;"/>
	</clipPath>
	<line class="st5" x1="106.6" y1="568.56" x2="106.6" y2="59.04"/>
	<line class="st5" x1="199.49" y1="568.56" x2="199.49" y2="59.04"/>
	<line class="st5" x1="292.39" y1="568.56" x2="292.39" y2="59.04"/>
	<line class="st5" x1="385.28" y1="568.56" x2="385.28" y2="59.04"/>
	<line class="st5" x1="478.17" y1="568.56" x2="478.17" y2="59.04"/>
	<line class="st5" x1="571.07" y1="568.56" x2="571.07" y2="59.04"/>
	<line class="st5" x1="59.04" y1="519.05" x2="590.76" y2="519.05"/>
	<line class="st5" x1="59.04" y1="426.16" x2="590.76" y2="426.16"/>
	<line class="st5" x1="59.04" y1="333.26" x2="590.76" y2="333.26"/>
	<line class="st5" x1="59.04" y1="240.37" x2="590.76" y2="240.37"/>
	<line class="st5" x1="59.04" y1="147.48" x2="590.76" y2="147.48"/>
	<rect x="130.27" y="365.47" class="st6" width="9.57" height="9.57"/>
	<rect x="110.48" y="342.71" class="st6" width="9.57" height="9.57"/>
	<rect x="92.77" y="355.15" class="st6" width="9.57" height="9.57"/>
	<rect x="104.62" y="344.9" class="st6" width="9.57" height="9.57"/>
	<rect x="94.62" y="366.81" class="st6" width="9.57" height="9.57"/>
	<rect x="83.22" y="343.58" class="st6" width="9.57" height="9.57"/>
	<rect x="101.23" y="367.16" class="st6" width="9.57" height="9.57"/>
	<rect x="84.14" y="362.29" class="st6" width="9.57" height="9.57"/>
	<rect x="89.33" y="360.4" class="st6" width="9.57" height="9.57"/>
	<rect x="98.75" y="366.67" class="st6" width="9.57" height="9.57"/>
	<rect x="94.84" y="341.49" class="st6" width="9.57" height="9.57"/>
	<rect x="94.89" y="354.8" class="st6" width="9.57" height="9.57"/>
	<rect x="538.36" y="350.2" class="st7" width="9.57" height="9.57"/>
	<rect x="539.2" y="319.99" class="st7" width="9.57" height="9.57"/>
	<rect x="539.89" y="309.9" class="st7" width="9.57" height="9.57"/>
	<rect x="531.69" y="302.28" class="st7" width="9.57" height="9.57"/>
	<rect x="534.92" y="319.69" class="st7" width="9.57" height="9.57"/>
	<rect x="566.76" y="299.46" class="st7" width="9.57" height="9.57"/>
	<rect x="540.68" y="338.58" class="st7" width="9.57" height="9.57"/>
	<rect x="542.43" y="317.42" class="st7" width="9.57" height="9.57"/>
	<rect x="541.76" y="338.05" class="st7" width="9.57" height="9.57"/>
	<rect x="542.96" y="300.4" class="st7" width="9.57" height="9.57"/>
	<rect x="541.2" y="327.53" class="st7" width="9.57" height="9.57"/>
	<rect x="548.22" y="310.14" class="st7" width="9.57" height="9.57"/>
	<rect x="558.69" y="325.01" class="st7" width="9.57" height="9.57"/>
	<rect x="540.8" y="323.02" class="st7" width="9.57" height="9.57"/>
	<rect x="550.73" y="325.34" class="st7" width="9.57" height="9.57"/>
	<rect x="509.49" y="292.92" class="st7" width="9.57" height="9.57"/>
	<rect x="535.98" y="314.29" class="st7" width="9.57" height="9.57"/>
	<rect x="536.43" y="264.34" class="st7" width="9.57" height="9.57"/>
	<rect x="502.48" y="276.76" class="st7" width="9.57" height="9.57"/>
	<rect x="536.83" y="294.59" class="st7" width="9.57" height="9.57"/>
	<rect x="544.1" y="290.23" class="st7" width="9.57" height="9.57"/>
	<rect x="533.88" y="306.98" class="st7" width="9.57" height="9.57"/>
	<rect x="96.03" y="353.72" class="st8" width="14.04" height="14.04"/>
	<rect x="536.74" y="309" class="st9" width="14.04" height="14.04"/>
	<polyline class="st10" points="140.96,371.18 141.15,370.43 141.32,369.67 141.46,368.91 141.58,368.15 141.68,367.38 
		141.75,366.6 141.79,365.83 141.82,365.04 141.81,364.26 141.79,363.47 141.73,362.69 141.66,361.9 141.55,361.11 141.43,360.32 
		141.28,359.53 141.1,358.74 140.9,357.95 140.68,357.17 140.43,356.38 140.16,355.6 139.87,354.82 139.55,354.05 139.21,353.28 
		138.84,352.51 138.45,351.75 138.05,351 137.61,350.25 137.16,349.51 136.68,348.78 136.19,348.05 135.67,347.33 135.13,346.62 
		134.57,345.92 133.99,345.23 133.39,344.55 132.77,343.88 132.13,343.22 131.48,342.57 130.8,341.93 130.11,341.31 129.4,340.69 
		128.68,340.09 127.94,339.5 127.18,338.93 126.4,338.37 125.62,337.82 124.81,337.29 124,336.78 123.17,336.28 122.32,335.79 
		121.47,335.32 120.6,334.87 119.72,334.43 118.84,334.01 117.94,333.61 117.03,333.22 116.11,332.85 115.19,332.5 114.26,332.17 
		113.32,331.86 112.37,331.56 111.42,331.28 110.46,331.02 109.5,330.78 108.53,330.56 107.56,330.36 106.59,330.18 105.61,330.02 
		104.63,329.87 103.66,329.75 102.68,329.65 101.7,329.56 100.72,329.5 99.75,329.45 98.77,329.43 97.8,329.43 96.83,329.44 
		95.87,329.48 94.91,329.53 93.96,329.61 93.01,329.7 92.07,329.82 91.13,329.95 90.21,330.11 89.29,330.28 88.38,330.47 
		87.48,330.69 86.59,330.92 85.71,331.17 84.84,331.44 83.98,331.72 83.13,332.03 82.3,332.36 81.48,332.7 80.67,333.06 
		79.88,333.44 79.11,333.83 78.34,334.24 77.6,334.67 76.87,335.12 76.16,335.58 75.46,336.06 74.78,336.56 74.12,337.07 
		73.48,337.59 72.85,338.13 72.25,338.68 71.67,339.25 71.1,339.83 70.56,340.43 70.03,341.04 69.53,341.66 69.05,342.29 
		68.59,342.93 68.15,343.59 67.74,344.25 67.35,344.93 66.98,345.62 66.63,346.32 66.31,347.02 66.01,347.74 65.73,348.46 
		65.48,349.19 65.25,349.93 65.04,350.67 64.86,351.42 64.7,352.18 64.57,352.94 64.46,353.71 64.38,354.48 64.32,355.26 
		64.29,356.04 64.28,356.82 64.29,357.61 64.33,358.39 64.4,359.18 64.49,359.97 64.6,360.76 64.74,361.55 64.9,362.34 
		65.09,363.13 65.3,363.92 65.54,364.7 65.8,365.48 66.08,366.26 66.39,367.04 66.72,367.81 67.07,368.58 67.45,369.34 67.84,370.1 
		68.26,370.85 68.71,371.59 69.17,372.33 69.66,373.06 70.17,373.78 70.7,374.5 71.25,375.2 71.81,375.9 72.4,376.58 73.01,377.26 
		73.64,377.93 74.29,378.58 74.95,379.23 75.64,379.86 76.34,380.48 77.05,381.08 77.79,381.68 78.54,382.26 79.3,382.83 
		80.09,383.38 80.88,383.92 81.69,384.44 82.51,384.95 83.35,385.44 84.2,385.92 85.06,386.38 85.93,386.83 86.81,387.26 
		87.71,387.67 88.61,388.06 89.52,388.44 90.44,388.8 91.37,389.14 92.31,389.46 93.25,389.77 94.2,390.06 95.16,390.32 
		96.12,390.57 97.08,390.8 98.05,391.01 99.02,391.21 100,391.38 100.97,391.53 101.95,391.66 102.93,391.78 103.91,391.87 
		104.89,391.95 105.86,392 106.84,392.03 107.81,392.05 108.78,392.04 109.74,392.02 110.71,391.97 111.66,391.91 112.61,391.82 
		113.56,391.72 114.5,391.59 115.43,391.45 116.35,391.28 117.26,391.1 118.17,390.9 119.07,390.68 119.95,390.43 120.83,390.17 
		121.69,389.9 122.54,389.6 123.38,389.28 124.21,388.95 125.02,388.6 125.82,388.23 126.6,387.84 127.37,387.44 128.13,387.02 
		128.87,386.58 129.59,386.12 130.29,385.65 130.98,385.17 131.65,384.67 132.3,384.15 132.93,383.62 133.55,383.07 134.14,382.51 
		134.71,381.93 135.27,381.35 135.8,380.74 136.32,380.13 136.81,379.5 137.28,378.87 137.73,378.22 138.15,377.55 138.56,376.88 
		138.94,376.2 139.3,375.51 139.63,374.81 139.94,374.1 140.23,373.38 140.5,372.65 140.74,371.92 140.96,371.18 	"/>
	<polyline class="st11" points="566.09,376.77 566.94,376.44 567.78,376.06 568.6,375.65 569.41,375.2 570.2,374.71 570.97,374.19 
		571.72,373.63 572.46,373.03 573.18,372.4 573.88,371.73 574.56,371.02 575.22,370.28 575.86,369.5 576.48,368.69 577.08,367.85 
		577.66,366.97 578.22,366.07 578.75,365.13 579.27,364.15 579.76,363.15 580.22,362.12 580.67,361.06 581.09,359.97 581.49,358.85 
		581.86,357.7 582.21,356.53 582.53,355.33 582.83,354.11 583.1,352.86 583.35,351.59 583.58,350.3 583.78,348.98 583.95,347.65 
		584.1,346.29 584.22,344.92 584.32,343.52 584.39,342.11 584.43,340.68 584.45,339.24 584.44,337.78 584.41,336.31 584.35,334.82 
		584.27,333.32 584.16,331.82 584.02,330.3 583.86,328.77 583.67,327.23 583.46,325.69 583.22,324.14 582.96,322.59 582.67,321.03 
		582.36,319.47 582.02,317.91 581.66,316.34 581.27,314.78 580.86,313.21 580.43,311.65 579.97,310.09 579.49,308.53 578.99,306.98 
		578.46,305.44 577.92,303.9 577.35,302.37 576.76,300.84 576.15,299.33 575.52,297.83 574.86,296.34 574.19,294.86 573.5,293.4 
		572.79,291.95 572.06,290.51 571.31,289.09 570.55,287.69 569.77,286.31 568.97,284.94 568.16,283.6 567.33,282.28 566.48,280.97 
		565.62,279.69 564.75,278.44 563.86,277.2 562.97,275.99 562.05,274.81 561.13,273.65 560.2,272.53 559.25,271.42 558.3,270.35 
		557.34,269.31 556.36,268.29 555.38,267.31 554.4,266.35 553.4,265.43 552.4,264.54 551.39,263.68 550.38,262.86 549.37,262.07 
		548.35,261.32 547.33,260.6 546.3,259.91 545.28,259.26 544.25,258.65 543.23,258.07 542.2,257.53 541.17,257.03 540.15,256.56 
		539.13,256.14 538.11,255.75 537.1,255.4 536.08,255.08 535.08,254.81 534.08,254.58 533.08,254.38 532.1,254.22 531.12,254.11 
		530.15,254.03 529.18,253.99 528.23,253.99 527.28,254.04 526.35,254.12 525.43,254.24 524.52,254.4 523.62,254.59 522.73,254.83 
		521.86,255.11 521,255.42 520.16,255.78 519.33,256.17 518.52,256.6 517.72,257.07 516.94,257.58 516.18,258.12 515.43,258.7 
		514.7,259.32 513.99,259.97 513.3,260.66 512.63,261.38 511.98,262.14 511.35,262.93 510.74,263.76 510.15,264.62 509.58,265.51 
		509.04,266.43 508.51,267.39 508.01,268.38 507.53,269.39 507.08,270.44 506.64,271.52 506.23,272.62 505.85,273.75 505.49,274.91 
		505.15,276.1 504.84,277.31 504.55,278.54 504.29,279.8 504.05,281.08 503.84,282.39 503.66,283.71 503.5,285.06 503.36,286.43 
		503.25,287.81 503.17,289.22 503.11,290.63 503.08,292.07 503.07,293.52 503.09,294.99 503.14,296.47 503.21,297.96 503.31,299.46 
		503.43,300.98 503.58,302.5 503.75,304.03 503.95,305.57 504.18,307.12 504.43,308.67 504.71,310.22 505.01,311.78 505.33,313.35 
		505.68,314.91 506.06,316.48 506.45,318.04 506.88,319.6 507.32,321.16 507.79,322.72 508.28,324.28 508.79,325.83 509.33,327.37 
		509.89,328.9 510.47,330.43 511.07,331.95 511.69,333.45 512.33,334.95 512.99,336.43 513.68,337.91 514.38,339.36 515.1,340.81 
		515.83,342.23 516.59,343.64 517.36,345.04 518.15,346.41 518.96,347.76 519.78,349.1 520.62,350.41 521.47,351.7 522.33,352.97 
		523.21,354.22 524.11,355.44 525.01,356.63 525.93,357.8 526.86,358.95 527.8,360.06 528.75,361.15 529.71,362.21 530.67,363.24 
		531.65,364.24 532.63,365.21 533.62,366.15 534.62,367.05 535.63,367.92 536.63,368.76 537.65,369.57 538.66,370.34 539.68,371.08 
		540.71,371.78 541.73,372.45 542.76,373.08 543.78,373.68 544.81,374.24 545.84,374.76 546.86,375.24 547.88,375.69 548.9,376.1 
		549.92,376.47 550.93,376.8 551.94,377.09 552.95,377.34 553.94,377.56 554.93,377.74 555.92,377.87 556.89,377.97 557.86,378.03 
		558.82,378.04 559.77,378.02 560.71,377.96 561.64,377.86 562.55,377.72 563.46,377.54 564.35,377.32 565.23,377.07 566.09,376.77 
			"/>
	<rect x="59.04" y="59.04" class="st12" width="114.39" height="43.2"/>
	<rect x="59.04" y="59.04" class="st13" width="114.39" height="43.2"/>
	<rect x="69.84" y="69.84" class="st8" width="8.64" height="7.2"/>
	<rect x="69.84" y="69.84" class="st13" width="8.64" height="7.2"/>
	<rect x="69.84" y="84.24" class="st9" width="8.64" height="7.2"/>
	<rect x="69.84" y="84.24" class="st13" width="8.64" height="7.2"/>
	<g class="st14">
		<text transform="matrix(1 0 0 1 89.2798 77.75)"><tspan x="0" y="0" class="st3 st4">Boa const</tspan><tspan x="53.37" y="0" class="st3 st4">r</tspan><tspan x="57.53" y="0" class="st3 st4">ictor</tspan></text>
	</g>
	<g class="st14">
		<text transform="matrix(1 0 0 1 89.2798 92.1499)"><tspan x="0" y="0" class="st3 st4">Crotalus atr</tspan><tspan x="62.02" y="0" class="st3 st4">o</tspan><tspan x="68.34" y="0" class="st3 st4">x</tspan></text>
	</g>
</g>
</svg>
